# Blender v2.79 (sub 0) OBJ File: ''
# www.blender.org
mtllib basic_turret.mtl
o Cube.001_Cube.002
v 4.426582 2.832479 -3.752846
v 4.426582 2.832479 -5.752846
v 6.426582 2.832479 -3.752846
v 6.426582 2.832479 -5.752846
v 4.426582 4.332479 -3.752846
v 4.546176 4.247913 -5.837412
v 6.306988 4.247913 -5.837412
v 6.426582 4.332479 -3.752846
v 6.306988 2.917045 -7.168281
v 4.546176 2.917045 -7.168281
v 5.426582 3.582479 -6.502846
v 5.411270 3.871861 -7.494742
v 5.411270 3.923625 -5.494742
v 5.551888 3.834183 -7.494742
v 5.577770 3.879012 -5.494742
v 5.654828 3.731243 -7.494742
v 5.699656 3.757125 -5.494742
v 5.692506 3.590625 -7.494742
v 5.744270 3.590625 -5.494742
v 5.654828 3.450007 -7.494742
v 5.699656 3.424125 -5.494742
v 5.551888 3.347068 -7.494742
v 5.577770 3.302239 -5.494742
v 5.411270 3.309389 -7.494742
v 5.411270 3.257625 -5.494742
v 5.270652 3.347068 -7.494742
v 5.244770 3.302239 -5.494742
v 5.167713 3.450007 -7.494742
v 5.122884 3.424125 -5.494742
v 5.130034 3.590625 -7.494742
v 5.078270 3.590625 -5.494742
v 5.167712 3.731243 -7.494742
v 5.122884 3.757125 -5.494742
v 5.270652 3.834183 -7.494742
v 5.244770 3.879012 -5.494742
v 5.411270 3.923625 -7.494742
v 5.577770 3.879012 -7.494742
v 5.699656 3.757125 -7.494742
v 5.744270 3.590625 -7.494742
v 5.699656 3.424125 -7.494742
v 5.577770 3.302239 -7.494742
v 5.411270 3.257625 -7.494742
v 5.244770 3.302239 -7.494742
v 5.122884 3.424125 -7.494742
v 5.078270 3.590625 -7.494742
v 5.122884 3.757125 -7.494742
v 5.244770 3.879012 -7.494742
v 5.411270 3.871861 -6.762176
v 5.551888 3.834183 -6.762176
v 5.654828 3.731243 -6.762176
v 5.692506 3.590625 -6.762176
v 5.654828 3.450007 -6.762176
v 5.551888 3.347068 -6.762176
v 5.411270 3.309389 -6.762176
v 5.270652 3.347068 -6.762176
v 5.167713 3.450007 -6.762176
v 5.130034 3.590625 -6.762176
v 5.167712 3.731243 -6.762176
v 5.270652 3.834183 -6.762176
v 4.426582 4.332479 -5.752846
v 6.426582 4.332479 -5.752846
v 6.426582 2.832479 -7.252846
v 4.426582 2.832479 -7.252846
v 4.546176 4.265591 -5.855090
v 6.306988 4.265591 -5.855090
v 6.306988 2.934722 -7.185958
v 4.546176 2.934722 -7.185958
vn 0.0000 -1.0000 0.0000
vn 0.0000 1.0000 0.0000
vn 0.0000 0.0000 1.0000
vn -1.0000 0.0000 0.0000
vn 1.0000 0.0000 0.0000
vn 0.2588 0.9659 0.0000
vn 0.7071 0.7071 0.0000
vn 0.9659 0.2588 0.0000
vn 0.9659 -0.2588 0.0000
vn 0.7071 -0.7071 0.0000
vn 0.2588 -0.9659 0.0000
vn -0.2588 -0.9659 0.0000
vn -0.7071 -0.7071 0.0000
vn -0.9659 -0.2588 0.0000
vn -0.9659 0.2588 0.0000
vn -0.7071 0.7071 0.0000
vn -0.2588 0.9659 0.0000
vn 0.0000 0.0000 -1.0000
vn 0.0000 0.7071 -0.7071
vn 0.0000 -0.7071 -0.7071
vn 0.0000 0.7071 0.7071
usemtl None
s off
f 2//1 4//1 3//1 1//1
f 61//2 60//2 5//2 8//2
f 8//3 5//3 1//3 3//3
f 2//4 1//4 5//4 60//4
f 4//1 2//1 63//1 62//1
f 8//5 3//5 4//5 61//5
f 10//4 6//4 64//4 67//4
f 60//4 63//4 2//4
f 4//5 62//5 61//5
f 36//6 13//6 15//6 37//6
f 37//7 15//7 17//7 38//7
f 38//8 17//8 19//8 39//8
f 39//9 19//9 21//9 40//9
f 40//10 21//10 23//10 41//10
f 41//11 23//11 25//11 42//11
f 42//12 25//12 27//12 43//12
f 43//13 27//13 29//13 44//13
f 44//14 29//14 31//14 45//14
f 45//15 31//15 33//15 46//15
f 15//3 13//3 35//3 33//3 31//3 29//3 27//3 25//3 23//3 21//3 19//3 17//3
f 46//16 33//16 35//16 47//16
f 47//17 35//17 13//17 36//17
f 32//10 34//10 59//10 58//10
f 14//18 12//18 36//18 37//18
f 16//18 14//18 37//18 38//18
f 18//18 16//18 38//18 39//18
f 20//18 18//18 39//18 40//18
f 22//18 20//18 40//18 41//18
f 24//18 22//18 41//18 42//18
f 26//18 24//18 42//18 43//18
f 28//18 26//18 43//18 44//18
f 30//18 28//18 44//18 45//18
f 32//18 30//18 45//18 46//18
f 34//18 32//18 46//18 47//18
f 12//18 34//18 47//18 36//18
f 48//18 49//18 50//18 51//18 52//18 53//18 54//18 55//18 56//18 57//18 58//18 59//18
f 12//12 14//12 49//12 48//12
f 26//7 28//7 56//7 55//7
f 20//16 22//16 53//16 52//16
f 34//11 12//11 48//11 59//11
f 14//13 16//13 50//13 49//13
f 28//8 30//8 57//8 56//8
f 22//17 24//17 54//17 53//17
f 16//14 18//14 51//14 50//14
f 30//9 32//9 58//9 57//9
f 24//6 26//6 55//6 54//6
f 18//15 20//15 52//15 51//15
f 7//19 6//19 60//19 61//19
f 10//19 9//19 62//19 63//19
f 9//19 7//19 61//19 62//19
f 6//19 10//19 63//19 60//19
f 64//19 65//19 66//19 67//19
f 9//20 10//20 67//20 66//20
f 7//5 9//5 66//5 65//5
f 6//21 7//21 65//21 64//21
l 11 62
l 60 11
l 61 63
